<?xml version="1.0" encoding="iso-8859-1"?>
<!-- Generator: Adobe Illustrator 19.0.0, SVG Export Plug-In . SVG Version: 6.00 Build 0)  -->
<svg version="1.1" id="Layer_1" xmlns="http://www.w3.org/2000/svg" xmlns:xlink="http://www.w3.org/1999/xlink" x="0px" y="0px"
	 viewBox="0 0 485 485" style="enable-background:new 0 0 485 485;" xml:space="preserve">
<path d="M455,102.524l30-0.049l-0.154-94.821L390.024,7.5l-0.049,30l43.74,0.071l-58.574,58.574
	c-26.385-21.595-59.129-33.339-93.68-33.339c-23.563,0-46.285,5.462-66.723,15.785c-20.013-10.09-42.607-15.784-66.508-15.784
	C66.496,62.807,0,129.303,0,211.038c0,76.672,58.514,139.933,133.231,147.476v47.601H91.663v30h41.568V477.5h30v-41.384H204.8v-30
	h-41.569v-47.601c18.358-1.853,35.734-7.076,51.508-15.03c20.439,10.322,43.161,15.784,66.723,15.784
	c39.594,0,76.818-15.419,104.815-43.416c27.998-27.997,43.417-65.221,43.417-104.815c0-34.551-11.744-67.295-33.339-93.68
	l58.574-58.574L455,102.524z M148.231,329.269C83.038,329.269,30,276.231,30,211.038S83.038,92.807,148.231,92.807
	c12.773,0,25.075,2.044,36.608,5.808c-2.809,2.422-5.542,4.958-8.192,7.608c-57.795,57.795-57.795,151.835,0,209.63
	c2.65,2.65,5.383,5.186,8.192,7.607C173.306,327.225,161.004,329.269,148.231,329.269z M266.462,211.038
	c0,40.529-20.502,76.356-51.676,97.667c-6.001-4.115-11.67-8.808-16.926-14.065c-46.098-46.099-46.098-121.105,0-167.204
	c5.257-5.257,10.925-9.95,16.926-14.065C245.96,134.682,266.462,170.509,266.462,211.038z M365.064,294.64
	c-22.331,22.331-52.021,34.629-83.602,34.629c-12.67,0-25.035-1.984-36.743-5.797c31.657-27.206,51.743-67.517,51.743-112.434
	c0-44.918-20.086-85.228-51.744-112.434c11.709-3.813,24.073-5.797,36.744-5.797c31.581,0,61.271,12.298,83.602,34.629
	s34.629,52.021,34.629,83.602S387.395,272.309,365.064,294.64z"/>
<g>
</g>
<g>
</g>
<g>
</g>
<g>
</g>
<g>
</g>
<g>
</g>
<g>
</g>
<g>
</g>
<g>
</g>
<g>
</g>
<g>
</g>
<g>
</g>
<g>
</g>
<g>
</g>
<g>
</g>
</svg>
